<svg width="20" height="18" viewBox="0 0 20 18" fill="none" xmlns="http://www.w3.org/2000/svg">
<path d="M6.25002 8.16667H3.83335C3.36664 8.16667 3.13329 8.16667 2.95503 8.25749C2.79823 8.33739 2.67074 8.46487 2.59085 8.62167C2.50002 8.79993 2.50002 9.03329 2.50002 9.5V16.5M13.75 8.16667H16.1667C16.6334 8.16667 16.8668 8.16667 17.045 8.25749C17.2018 8.33739 17.3293 8.46487 17.4092 8.62167C17.5 8.79993 17.5 9.03329 17.5 9.5V16.5M13.75 16.5V4.16667C13.75 3.23325 13.75 2.76654 13.5684 2.41002C13.4086 2.09641 13.1536 1.84144 12.84 1.68166C12.4835 1.5 12.0168 1.5 11.0834 1.5H8.91669C7.98327 1.5 7.51656 1.5 7.16004 1.68166C6.84643 1.84144 6.59147 2.09641 6.43168 2.41002C6.25002 2.76654 6.25002 3.23325 6.25002 4.16667V16.5M18.3334 16.5H1.66669M9.16669 4.83333H10.8334M9.16669 8.16667H10.8334M9.16669 11.5H10.8334" stroke="currentColor" stroke-width="2" stroke-linecap="round" stroke-linejoin="round"/>
</svg>
