<svg width="113" height="112" viewBox="0 0 113 112" fill="none" xmlns="http://www.w3.org/2000/svg">
<rect x="0.5" width="112" height="112" rx="56" fill="#E8E8E8"/>
<path d="M37.41 78.909C37.41 78.909 33.5918 78.909 33.5918 75.0908C33.5918 71.2726 37.41 59.8181 56.5009 59.8181C75.5918 59.8181 79.41 71.2726 79.41 75.0908C79.41 78.909 75.5918 78.909 75.5918 78.909H37.41ZM56.5009 55.9999C59.5388 55.9999 62.4523 54.7931 64.6005 52.645C66.7486 50.4968 67.9554 47.5833 67.9554 44.5454C67.9554 41.5074 66.7486 38.5939 64.6005 36.4458C62.4523 34.2976 59.5388 33.0908 56.5009 33.0908C53.463 33.0908 50.5494 34.2976 48.4013 36.4458C46.2532 38.5939 45.0463 41.5074 45.0463 44.5454C45.0463 47.5833 46.2532 50.4968 48.4013 52.645C50.5494 54.7931 53.463 55.9999 56.5009 55.9999V55.9999Z" fill="#A0A4A8"/>
</svg>
